<svg width="8138" height="2416" viewBox="0 0 8138 2416" fill="none" xmlns="http://www.w3.org/2000/svg">
<path d="M839.587 496.379C718.376 710.827 544.336 899.984 350 1029.56V1359C374.565 1344.98 399.224 1330.58 423.789 1315.43C518.903 1256.22 609.533 1190.12 694.949 1117.65C873.541 964.015 1034.02 740.474 1176 496" fill="#FF9810"/>
<path d="M315 1052.24V1009.7V0H0V1803H315V1406.11V1378.26V1052.24Z" fill="#28C6FF"/>
<path d="M697.913 1166C649.373 1206.32 528.119 1304.26 450 1344.3L877.282 1803H1251L697.913 1166Z" fill="#DB0025"/>
<path d="M2558 1049.13C2557.58 1109.28 2553.91 1169.37 2547.01 1229.12H1563.06C1571.27 1352.65 1614.74 1454.64 1693.46 1535.1C1772.18 1615.56 1870.98 1655.78 1989.88 1655.78C2037.24 1656.19 2084.53 1652.29 2131.18 1644.13C2170.51 1637.28 2208.65 1624.81 2244.42 1607.09C2270.1 1594.52 2295.06 1580.55 2319.19 1565.22C2335.68 1554.23 2357.19 1538.7 2383.73 1518.62C2414.22 1534.11 2440.74 1556.41 2461.24 1583.79C2482.63 1609.72 2498.29 1639.87 2507.21 1672.27C2356.53 1800.15 2183.27 1864.06 1987.42 1864C1791.57 1863.94 1632.52 1800.37 1510.28 1673.31C1388.16 1546.31 1327.06 1377.59 1327 1167.17C1327 964.067 1388.53 795.796 1511.6 662.353C1634.67 528.911 1786.77 462.126 1967.9 462C2138.92 462 2280.05 517.101 2391.31 627.303C2502.56 737.506 2558.13 878.116 2558 1049.13ZM1565.81 1040.89H2321.94C2322.16 994.902 2315.45 949.14 2302.04 905.146C2288.78 862.167 2268.62 821.631 2242.34 785.123C2213.89 746.503 2175.83 716 2131.94 696.646C2080.34 673.746 2024.34 662.49 1967.9 663.68C1857.21 663.68 1765.6 699.582 1693.08 771.387C1620.55 843.193 1578.13 933.028 1565.81 1040.89Z" fill="#FFFFFF"/>
<path d="M1987.32 1878.97C1788.32 1878.97 1624.58 1813.3 1500.15 1683.85C1375.73 1554.4 1313 1380.6 1313 1167.66C1313 961.824 1376.4 788.591 1501.39 652.98C1626.38 517.369 1783.68 448 1968.09 448C2142.26 448 2288.09 504.86 2401.43 617.537C2514.76 730.215 2572 875.397 2572 1049.58C2571.63 1110.35 2567.96 1171.06 2561.01 1231.44L2559.68 1244.04H1578.33C1588.85 1356.91 1630.92 1451.67 1703.51 1525.97C1779.32 1603.3 1875.41 1642.44 1989.79 1642.44C2036.28 1642.81 2082.71 1638.97 2128.52 1630.97C2166.5 1624.41 2203.34 1612.38 2237.87 1595.24C2263.06 1582.93 2287.54 1569.23 2311.22 1554.21C2327.42 1543.5 2348.27 1528.43 2374.99 1508.06L2382 1502.85L2389.77 1506.64C2422.21 1523.08 2450.45 1546.75 2472.31 1575.82C2494.87 1603.37 2511.42 1635.32 2520.92 1669.64L2523.01 1678.26L2516.28 1683.95C2369.57 1811.17 2181.5 1880.52 1987.32 1878.97V1878.97ZM1968.37 476.43C1792.21 476.43 1642.2 542.293 1522.52 672.218C1402.83 802.143 1341.71 969.121 1341.71 1167.66C1341.71 1373.3 1402.08 1540.37 1521 1664.14C1639.93 1787.9 1796.76 1850.54 1987.61 1850.54C2171.92 1851.76 2350.55 1786.76 2490.98 1667.36C2481.97 1640.15 2468.06 1614.81 2449.95 1592.59C2432.37 1569.45 2410.29 1550.1 2385.04 1535.73C2361.16 1553.64 2342.11 1567.38 2326.95 1577.43C2302.49 1593.07 2277.18 1607.34 2251.14 1620.17C2214.12 1638.29 2174.72 1651.06 2134.11 1658.07C2086.59 1666.42 2038.41 1670.42 1990.16 1670.01C1867.83 1670.01 1764.63 1627.94 1683.52 1545.02C1602.4 1462.1 1557.58 1356.43 1549.15 1229.92L1548.2 1214.76H2534.1C2540.08 1159.77 2543.24 1104.51 2543.57 1049.2C2543.57 882.884 2488.89 744.335 2381.06 637.344C2273.22 530.352 2134.2 476.43 1967.8 476.43H1968.37ZM2336.61 1055.55H1550.09L1551.99 1039.72C1565.16 929.035 1609.41 835.406 1683.71 761.583C1758 687.759 1854.28 649.758 1967.99 649.758C2026.48 648.634 2084.51 660.344 2137.99 684.064C2184.07 704.496 2224.05 736.567 2253.98 777.124C2281.1 814.957 2301.96 856.906 2315.77 901.363C2329.5 946.744 2336.4 993.919 2336.23 1041.33L2336.61 1055.55ZM1582.6 1027.12H2307.99C2306.97 987.307 2300.59 947.815 2289.04 909.703C2276.19 868.176 2256.7 829.004 2231.33 793.708C2204.02 757.152 2167.63 728.371 2125.77 710.219C2076.06 688.233 2022.14 677.428 1967.8 678.567C1861.48 678.567 1772.5 713.441 1703.42 782.147C1637.17 848.268 1594.51 934.351 1582.03 1027.12H1582.6Z" fill="#303030"/>
<path d="M3957.79 492.003C4004.89 492.894 4051.42 502.534 4095 520.432C3969.6 1002.59 3818.65 1399.64 3642.14 1711.6C3512 1939.79 3342.69 2169.59 3134.22 2401C3097.68 2394.65 3063.81 2377.71 3036.81 2352.29C3009.32 2327.44 2987.75 2296.74 2973.7 2262.46C3131.25 2087.71 3250.24 1933.47 3330.66 1799.73C3105.63 1426.49 2928.75 997.405 2800 512.472C2845.25 498.722 2892.29 491.822 2939.58 492.003C2973.58 492.017 3007.52 494.774 3041.07 500.248C3087.72 680.724 3144.13 858.539 3210.03 1032.91C3273.2 1198.49 3351.89 1376.42 3446.08 1566.71C3452.44 1580.91 3459.78 1594.66 3468.06 1607.84C3468.92 1606.03 3472.14 1600.54 3477.54 1591.35C3481.96 1584.46 3485.65 1577.12 3488.53 1569.46C3635.85 1285.17 3761.19 928.828 3864.54 500.437C3895.32 494.91 3926.52 492.087 3957.79 492.003V492.003Z" fill="#FFFFFF"/>
<path d="M3139.95 2416L3132.18 2414.67C3093.11 2407.73 3056.9 2389.6 3027.95 2362.48C2999.05 2336.24 2976.39 2303.88 2961.62 2267.75L2958.2 2259.51L2964.17 2252.88C3117.4 2082.37 3235.37 1930.81 3314.77 1800.09C3092.1 1429.24 2914.43 997.572 2786.6 517.122L2783 503.86L2796.17 499.882C2842.89 485.668 2891.46 478.516 2940.3 478.663C2975.21 478.667 3010.07 481.487 3044.53 487.094L3054 488.515L3056.28 497.514C3102.78 677.244 3158.99 854.326 3224.66 1027.98C3287.29 1192.42 3366.79 1371.55 3460.13 1560.34V1561.38C3462.7 1567.59 3465.64 1573.63 3468.94 1579.47C3471.73 1574.84 3474.07 1569.96 3475.95 1564.89L3476.81 1562.9C3622.83 1280.9 3748.95 922.455 3851.57 497.514L3853.75 488.041L3863.22 486.431C3894.85 480.849 3926.9 478.028 3959.02 478C4007.83 479.097 4056.01 489.18 4101.16 507.744L4113 512.386L4109.78 524.605C3984.7 1005.43 3831.86 1407.26 3655.61 1718.72C3525.79 1946.06 3354.38 2178.81 3146.01 2410.22L3139.95 2416ZM2990.71 2264.91C3004.04 2293.98 3023.12 2320.05 3046.8 2341.55C3069.97 2363.19 3098.49 2378.26 3129.43 2385.21C3334.01 2157.87 3502.3 1928.82 3630.03 1704.99C3803.53 1398.45 3954.38 1003.16 4078.22 530.383C4039.79 515.732 3999.11 507.817 3957.98 506.986C3930.63 507.012 3903.32 509.166 3876.3 513.428C3773.58 936.19 3647.56 1293.4 3501.73 1575.21C3498.56 1583.47 3494.59 1591.4 3489.88 1598.89C3482.87 1610.54 3481.26 1613.48 3480.41 1614.24L3468.85 1637.64L3455.39 1615.28C3446.82 1601.62 3439.22 1587.38 3432.65 1572.65C3338.84 1383.2 3259.34 1203.22 3196.33 1038.3C3131.67 866.42 3076.22 691.212 3030.22 513.428C2959.38 502.024 2886.95 505.248 2817.4 522.9C2945.22 998.614 3122.13 1425.73 3343.29 1792.23L3347.75 1799.62L3343.29 1806.91C3263.6 1938.96 3145.06 2093.27 2990.71 2264.91Z" fill="#FFFFFF"/>
<path d="M5249.23 506.056C5251.77 541.441 5248.02 576.995 5238.14 611.068C5229.28 644.616 5213.89 676.084 5192.83 703.664C5113.88 683.76 5032.67 674.202 4951.24 675.232C4831.19 675.232 4734.67 698.104 4661.69 743.849V1824.96C4623.72 1832.77 4585.02 1836.46 4546.25 1835.95C4507.56 1836.18 4468.95 1832.5 4431 1824.96V641.87C4490.39 591.323 4568.4 548.8 4665.01 514.302C4761.6 479.484 4863.54 461.811 4966.22 462.08C5062.35 460.766 5158.03 475.632 5249.23 506.056V506.056Z" fill="#FFFFFF"/>
<path d="M4546.44 1849.95C4506.8 1850.17 4467.25 1846.4 4428.37 1838.68L4417 1836.4V635.48L4422.02 631.216C4482.48 580.053 4562.64 536.469 4660.33 501.034C4758.48 465.79 4862.01 447.869 4966.3 448.07C5063.92 446.836 5161.06 461.952 5253.69 492.791L5262.41 495.822L5263.17 505.297C5265.87 542.322 5261.99 579.534 5251.7 615.204C5242.47 650.53 5226.37 683.692 5204.32 712.794L5198.54 720.089L5189.07 717.721C5111.34 698.053 5031.4 688.5 4951.23 689.296C4838.28 689.296 4745.71 710.236 4676.44 751.64V1836.21L4665.26 1838.68C4626.17 1846.7 4586.33 1850.48 4546.44 1849.95V1849.95ZM4445.43 1813C4478.78 1818.84 4512.58 1821.69 4546.44 1821.53C4580.32 1821.84 4614.16 1819.05 4647.54 1813.19V735.723L4654.17 731.554C4729.31 684.18 4829.28 660.777 4951.23 660.777C5030.65 660.015 5109.87 669.053 5187.08 687.686C5204.11 663.298 5216.72 636.101 5224.32 607.34C5232.83 577.869 5236.57 547.226 5235.4 516.572C5148.41 488.953 5057.56 475.423 4966.3 476.494C4865.3 476.28 4765.03 493.657 4670 527.847C4578.18 560.914 4502.75 601.56 4445.43 648.745V1813Z" fill="#FFFFFF"/>
<path d="M6554.51 492.032C6592.29 491.614 6630.01 495.301 6667 503.028V1734.44C6575.45 1774.47 6480.65 1806.62 6383.64 1830.56C6276.75 1854.85 6167.35 1866.36 6057.73 1864.87C5873.76 1864.87 5734.01 1818.68 5638.48 1726.29C5542.95 1633.9 5495.13 1506.85 5495 1345.14V503.217C5532.97 495.617 5571.61 491.87 5610.33 492.032C5648.12 491.614 5685.83 495.301 5722.82 503.028V1251.3C5721.79 1308.54 5726.84 1365.74 5737.89 1421.92C5747.72 1466.4 5766.66 1508.36 5793.52 1545.15C5820.5 1582.18 5860.08 1609.41 5912.26 1626.85C5964.45 1644.3 6030.79 1652.99 6111.28 1652.92C6223.28 1653.21 6334.4 1633.21 6439.27 1593.87V503.217C6477.21 495.624 6515.82 491.876 6554.51 492.032V492.032Z" fill="#FFFFFF"/>
<path d="M6057.74 1878.88C5870.93 1878.88 5726.17 1830.91 5628.69 1736.2C5531.21 1641.49 5481 1509.61 5481 1344.37V491.587L5492.37 489.312C5531.27 481.586 5570.84 477.806 5610.5 478.03C5649.32 477.622 5688.07 481.404 5726.08 489.312L5737.16 491.777V1250.98C5736.15 1307.28 5741.1 1363.53 5751.94 1418.79C5761.28 1461.48 5779.38 1501.77 5805.09 1537.11C5830.19 1571.61 5867.8 1597.31 5916.78 1613.71C5967.18 1630.49 6032.64 1639.02 6111.17 1639.02C6218.11 1639.19 6324.26 1620.68 6424.84 1584.32V491.587L6436.21 489.312C6475.11 481.59 6514.68 477.811 6554.34 478.03C6593.16 477.622 6631.91 481.404 6669.92 489.312L6681 491.777V1743.59L6672.47 1747.29C6580.17 1787.52 6484.66 1819.93 6386.94 1844.18C6278.96 1868.68 6168.46 1880.33 6057.74 1878.88V1878.88ZM5509.42 514.53V1344.84C5509.42 1502.03 5556.22 1627.08 5648.49 1716.29C5740.76 1805.5 5878.51 1850.91 6057.74 1850.91C6166.07 1852.35 6274.19 1840.96 6379.84 1816.97C6473.01 1793.97 6564.14 1763.34 6652.3 1725.39V514.34C6619.88 508.486 6586.99 505.692 6554.06 505.997C6520.18 505.831 6486.35 508.686 6452.97 514.53V1604.04L6443.5 1607.55C6337.18 1647.16 6224.62 1667.36 6111.17 1667.18C6029.61 1667.18 5961.11 1658.17 5907.78 1640.35C5853.02 1622.15 5810.77 1592.95 5782.16 1553.6C5754.14 1515.13 5734.4 1471.26 5724.18 1424.76C5712.89 1367.45 5707.71 1309.1 5708.74 1250.7V514.34C5676.33 508.486 5643.44 505.692 5610.5 505.997C5576.62 505.831 5542.79 508.686 5509.42 514.53V514.53Z" fill="#FFFFFF"/>
<path d="M7570.8 1864C7441.86 1864 7335.29 1846.85 7251.08 1812.55C7166.87 1778.25 7102.84 1740.07 7059 1698.01C7086.42 1624.86 7129.41 1570.45 7187.97 1534.76C7213.61 1555.87 7240.4 1575.55 7268.23 1593.69C7292.49 1609.29 7332.07 1624.86 7386.96 1640.4C7446.88 1656.59 7508.74 1664.44 7570.8 1663.71C7684.51 1663.71 7767.99 1645.17 7821.24 1608.09C7874.5 1571.02 7901.25 1521.4 7901.51 1459.25C7901.51 1402.4 7876.24 1357.36 7825.7 1324.14C7775.16 1290.92 7688.23 1266.44 7564.92 1250.71C7502.88 1243.83 7441.59 1231.43 7381.75 1213.67C7329.22 1197.71 7279.06 1174.8 7232.6 1145.55C7187.27 1117.25 7150.49 1077.16 7126.18 1029.58C7100.52 977.269 7087.82 919.558 7089.13 861.311C7089.13 745.153 7137.18 649.587 7233.26 574.612C7329.35 499.637 7459.71 462.118 7624.33 462.055C7716.78 461.045 7808.86 474.014 7897.43 500.521C7979.56 526.102 8042.73 557.21 8086.95 593.845C8074.15 660.138 8039.93 720.391 7989.54 765.334C7875.83 695.854 7745.47 661.114 7598.47 661.114C7502.38 661.114 7430.55 676.652 7382.98 707.729C7335.41 738.805 7311.63 781.346 7311.63 835.351C7311.63 890.176 7332.7 932.496 7374.83 962.309C7416.97 992.122 7496.09 1015.21 7612.2 1031.57C7778.67 1054.37 7905.58 1096.91 7992.95 1159.19C8080.32 1221.47 8124 1311.1 8124 1428.08C8124 1564.45 8074.85 1671.26 7976.55 1748.5C7878.26 1825.75 7743 1864.25 7570.8 1864Z" fill="#FFFFFF"/>
<path d="M7571.45 1879C7441.23 1879 7331.87 1861.37 7246.38 1826.49C7160.9 1791.61 7094.75 1752.18 7049.73 1708.96L7043 1702.51L7046.22 1693.7C7074.65 1617.87 7120.14 1560.43 7181.18 1523.09L7189.71 1517.87L7197.57 1524.13C7222.81 1544.93 7249.16 1564.32 7276.52 1582.23C7299.45 1596.92 7338.12 1612.09 7391.48 1627.16C7450.16 1643.02 7510.76 1650.71 7571.55 1650C7681.58 1650 7763.08 1632.18 7813.97 1596.92C7864.87 1561.66 7888.09 1517.49 7888.09 1459.68C7888.09 1407.64 7865.53 1367.26 7819 1336.46C7770.76 1304.42 7685.08 1280.54 7564.34 1265.28C7501.46 1258.14 7439.33 1245.45 7378.68 1227.36C7324.78 1210.89 7273.3 1187.3 7225.63 1157.22C7178.33 1127.57 7139.9 1085.73 7114.36 1036.09C7087.7 981.881 7074.38 922.086 7075.51 861.686C7075.51 741.406 7125.83 641.125 7225.15 563.686C7324.47 486.248 7457.91 448.05 7625 448.05C7718.87 447.075 7812.36 460.272 7902.3 487.196C7986.08 513.167 8051.38 545.488 8096.58 583.117L8103.22 588.615L8101.42 596.956C8087.96 666.288 8052.18 729.307 7999.54 776.381L7991.67 783.395L7982.19 777.898C7871.5 710.033 7742.42 675.626 7598.46 675.626C7505.68 675.626 7435.74 690.602 7390.72 719.985C7345.7 749.368 7325.8 786.333 7325.8 835.716C7325.8 885.098 7344.76 923.959 7382.66 951.067C7422.66 979.503 7500.47 1001.87 7613.91 1017.98C7781.85 1041.02 7912.16 1084.81 8000.96 1148.12C8091.94 1212.86 8138 1307.26 8138 1428.68C8138 1568.96 8086.54 1680.52 7985.04 1760.43C7883.54 1840.33 7745.93 1879 7571.45 1879ZM7076.45 1694.84C7118.63 1732.75 7179.38 1768.48 7257.19 1800.14C7339.26 1833.6 7445.02 1850.56 7571.55 1850.56C7739.58 1850.56 7873.02 1812.65 7968.36 1737.68C8063.7 1662.7 8110.52 1559.39 8110.52 1428.3C8110.52 1315.04 8069.67 1230.87 7985.42 1170.87C7901.16 1110.87 7774.36 1068.22 7610.88 1045.76C7491.27 1028.79 7411.85 1005.28 7367.22 973.91C7321.35 941.494 7298.03 894.956 7298.03 835.337C7298.03 775.718 7324.28 729.558 7375.84 695.815C7425.6 663.304 7500.66 646.812 7599.12 646.812C7744.41 646.812 7875.39 680.744 7988.45 747.662C8030.26 707.504 8059.3 655.907 8071.94 599.325C8029.86 566.341 7970.06 537.621 7894.06 514.02C7806.85 487.936 7716.21 475.155 7625.19 476.106C7464.07 476.106 7335.94 512.977 7242.78 585.676C7149.62 658.375 7103.94 750.41 7103.94 861.686C7102.77 917.463 7114.96 972.709 7139.48 1022.82C7162.69 1068.08 7197.69 1106.23 7240.79 1133.24C7286.32 1161.98 7335.46 1184.55 7386.93 1200.35C7445.98 1217.82 7506.46 1230.03 7567.66 1236.84C7694.75 1252.86 7782.03 1277.6 7834.63 1312.67C7888.94 1348.69 7916.42 1397.97 7916.42 1459.68C7916.42 1526.59 7887.42 1580.62 7830.08 1620.34C7774.36 1658.91 7687.36 1678.44 7571.45 1678.44C7508.07 1679.12 7444.9 1671.09 7383.71 1654.55C7326.84 1638.44 7286.75 1622.61 7261.17 1606.21C7235.77 1589.61 7211.22 1571.73 7187.62 1552.66C7136.77 1587.43 7097.94 1637.1 7076.45 1694.84V1694.84Z" fill="#FFFFFF"/>
</svg>
